<?xml version="1.0" encoding="utf-8"?>
<!-- Generator: Adobe Illustrator 24.0.2, SVG Export Plug-In . SVG Version: 6.00 Build 0)  -->
<svg version="1.1" id="empty" xmlns="http://www.w3.org/2000/svg" xmlns:xlink="http://www.w3.org/1999/xlink" x="0px" y="0px"
	 viewBox="0 0 471.4 150" style="enable-background:new 0 0 471.4 150;" xml:space="preserve">
<style type="text/css">
	.st0{fill:#333333;}
	.st1{fill:#127AC1;}
</style>
<g id="horizontal" transform="matrix(1,0,0,1,0,0)">
	<g id="logo" transform="matrix(0.983029102420236,0,0,0.9830288755625325,296.16499319950395,-0.7480869373198189)">
		<g id="brand" transform="matrix(1,0,0,1,0,0)">
			<g transform="matrix(1,0,0,1,0,0)">
				<path id="text" class="st0" d="M-265.4,91.6c-3.5-4-5.4-9.9-5.7-17.8l12.2-2.4c0.2,4.9,1,8.7,2.4,11.3c1.4,2.6,3.5,3.9,6.5,3.9
					c2.2,0,3.8-0.7,4.8-2c1.1-1.3,1.6-3.1,1.6-5.3c0-3.1-0.7-5.7-2.1-7.8c-1.4-2.1-3.5-4.5-6.5-7.1l-9.8-8.5c-3-2.6-5.3-5.3-6.8-8.3
					c-1.5-2.9-2.3-6.5-2.3-10.6c0-6.1,1.8-10.8,5.3-14.2c3.6-3.4,8.5-5,14.7-5c6.7,0,11.5,1.9,14.4,5.7c2.9,3.8,4.6,8.9,5,15.4
					l-12.2,2.1c-0.2-4.2-0.8-7.4-1.8-9.6c-1-2.1-2.9-3.2-5.8-3.2c-2,0-3.6,0.7-4.8,2.1c-1.2,1.4-1.7,3.1-1.7,5.2
					c0,2.5,0.5,4.6,1.5,6.3c1,1.7,2.6,3.5,4.8,5.4l9.7,8.5c3.6,3.1,6.5,6.5,8.5,10.1c2,3.6,3.1,7.7,3.1,12.5c0,3.7-0.8,7-2.4,9.9
					s-3.9,5.1-6.9,6.8c-2.9,1.6-6.3,2.4-10.2,2.4C-256.7,97.6-262,95.6-265.4,91.6z M-217,18.8h14.1V53l15.5-34.2h13.5l-14.9,34.6
					l16.4,43.1h-14.1l-13-35.3l-3.5,5.9v29.5h-14V18.8z M-160.9,18.8h14.1v32.4h15.8V18.8h14.2v77.8H-131V61.5h-15.8v35.1h-14.1
					C-160.9,96.6-160.9,18.8-160.9,18.8z M-96.1,91.1c-3.5-4.3-5.2-10.6-5.2-19V43c0-8.3,1.7-14.5,5.2-18.7s9.2-6.3,17.3-6.3
					c8,0,13.7,2.1,17.2,6.3c3.5,4.2,5.2,10.5,5.2,18.7v29.2c0,8.3-1.7,14.6-5.2,18.9c-3.5,4.4-9.2,6.5-17.1,6.5
					C-86.9,97.6-92.7,95.4-96.1,91.1z M-72.5,84.1c1.1-2,1.6-4.9,1.6-8.6V39.7c0-3.8-0.5-6.6-1.6-8.5s-3.2-2.9-6.4-2.9
					s-5.3,1-6.4,2.9c-1.1,2-1.6,4.8-1.6,8.5v35.8c0,3.8,0.5,6.7,1.6,8.6c1.1,2,3.2,3,6.4,3C-75.7,87.1-73.6,86.1-72.5,84.1z
					 M-37.3,91.1c-3.5-4.3-5.2-10.6-5.2-19V43c0-8.3,1.7-14.5,5.2-18.7S-28.1,18-20,18c8,0,13.7,2.1,17.2,6.3S2.4,34.8,2.4,43v29.2
					c0,8.3-1.7,14.6-5.2,18.9c-3.5,4.4-9.2,6.5-17.1,6.5C-28.1,97.6-33.8,95.4-37.3,91.1z M-13.7,84.1c1.1-2,1.6-4.9,1.6-8.6V39.7
					c0-3.8-0.5-6.6-1.6-8.5s-3.2-2.9-6.4-2.9s-5.3,1-6.4,2.9s-1.6,4.8-1.6,8.5v35.8c0,3.8,0.5,6.7,1.6,8.6s3.2,3,6.4,3
					C-16.9,87.1-14.8,86.1-13.7,84.1z M17.6,18.8h14.1v68.1h18.9v9.7h-33V18.8z M62.8,18.8h32.6v10H76.9v22.4h14.6v9.9H76.9v25.8
					h18.7v9.7H62.8L62.8,18.8L62.8,18.8z M119.6,66.9l-15.7-48.1h13.2l9.6,30.8l9-30.8h13l-15.6,48.1v29.7h-13.5V66.9z"/>
			</g>
		</g>
		<g id="slogan" transform="matrix(1,0,0,1,0,143.67999267578125)">
			<g transform="matrix(0.5,0,0,0.5,0,0)">
				<path id="text_1_" class="st1" d="M-491-15.2V-8h-45.9v-63.4h44.4v7.2h-36.7v20.4h28.6v7.2h-28.6v21.3h38.2V-15.2z M-430.8-58.8
					l-6.6,5.4c-1.9-4.2-4.2-7.2-6.9-9c-2.7-1.8-6.3-2.6-10.9-2.6c-4.9,0-8.7,1-11.5,3c-2.8,2-4.2,4.6-4.2,7.7c0,2,0.5,3.7,1.6,5.1
					c1.1,1.3,2.9,2.5,5.4,3.5s6,1.9,10.5,2.6c8.4,1.4,14.3,3.5,17.8,6.3s5.2,6.7,5.2,11.7c0,3.6-1,6.7-3,9.5c-2,2.7-4.9,4.8-8.6,6.3
					c-3.7,1.5-8,2.3-12.9,2.3c-6.4,0-11.9-1.2-16.4-3.7s-8-5.8-10.3-10l6.6-5.4c1.7,3.8,4.3,6.7,7.6,8.8c3.4,2.1,7.6,3.1,12.6,3.1
					s9-0.9,11.9-2.7c2.9-1.8,4.4-4.4,4.4-7.7c0-2.8-1.3-5.1-3.8-6.7s-7.1-3.1-13.6-4.2c-8.4-1.5-14.4-3.6-18-6.3
					c-3.5-2.8-5.3-6.6-5.3-11.5c0-3.4,1-6.5,2.9-9.4c1.9-2.9,4.7-5.2,8.3-6.9c3.6-1.7,7.7-2.5,12.5-2.5
					C-444-72.3-435.8-67.8-430.8-58.8z M-372.8-11.6c-4.5,3-9.8,4.6-15.7,4.6c-6,0-11.1-1.3-15.6-4c-4.4-2.7-7.8-6.4-10.2-11.3
					c-2.4-4.9-3.6-10.7-3.6-17.3s1.2-12.4,3.6-17.3c2.4-4.9,5.8-8.7,10.2-11.4c4.4-2.7,9.5-4,15.4-4c6.1,0,11.2,1.2,15.3,3.7
					s7.2,6.2,9.3,11l-7.6,3.6c-1.4-3.7-3.5-6.5-6.1-8.4c-2.7-1.9-6.1-2.8-10.3-2.8c-4.4,0-8.2,1-11.4,3c-3.3,2-5.8,4.9-7.6,8.8
					c-1.8,3.9-2.7,8.4-2.7,13.6c0,7.9,1.9,14.2,5.7,18.7c3.8,4.5,9,6.8,15.6,6.8c4.3,0,8-1.1,11.1-3.3s5.4-5.4,6.7-9.6l7.7,2.9
					C-365-18.8-368.3-14.6-372.8-11.6z M-299.2-31.6c0,8.1-2.1,14.3-6.4,18.4C-309.9-9.1-316-7-324.1-7s-14.2-2.1-18.5-6.2
					c-4.3-4.2-6.4-10.3-6.4-18.3v-39.7h7.7v37.7c0,6.7,1.4,11.5,4.2,14.6c2.8,3.1,7.1,4.7,13,4.7s10.2-1.6,13-4.7
					c2.8-3.1,4.2-8,4.2-14.6v-37.8h7.7V-31.6z M-233.3-15.2V-8h-45.9v-63.4h44.4v7.2h-36.8v20.4h28.6v7.2h-28.6v21.3h38.3V-15.2z
					 M-173.9-15.2V-8h-44v-63.4h7.7v56.2H-173.9z M-124.9-25.5h-28.7l-6.7,17.6h-8.1l24.7-63.4h9.1L-110-7.9h-8.2L-124.9-25.5z
					 M-127.7-32.7l-8.5-22.5l-3-8.8h-0.2l-2.8,8.5l-8.6,22.8H-127.7z M-23.4-58.8l-6.6,5.4c-1.9-4.2-4.2-7.2-6.9-9
					c-2.7-1.8-6.3-2.6-10.9-2.6c-4.9,0-8.7,1-11.5,3c-2.8,2-4.2,4.6-4.2,7.7c0,2,0.5,3.7,1.6,5.1c1.1,1.4,2.9,2.5,5.4,3.5
					s6,1.9,10.5,2.6c8.4,1.4,14.3,3.5,17.8,6.3c3.5,2.8,5.2,6.7,5.2,11.7c0,3.6-1,6.7-3,9.5c-2,2.7-4.9,4.8-8.6,6.3S-42.6-7-47.5-7
					c-6.4,0-11.9-1.2-16.4-3.7s-8-5.8-10.3-10l6.6-5.4c1.7,3.8,4.3,6.7,7.6,8.8c3.4,2.1,7.6,3.1,12.6,3.1s9-0.9,11.9-2.7
					s4.4-4.4,4.4-7.7c0-2.8-1.3-5.1-3.8-6.7s-7.1-3.1-13.6-4.2c-8.4-1.5-14.4-3.6-18-6.3s-5.3-6.6-5.3-11.5c0-3.4,1-6.5,2.9-9.4
					s4.7-5.2,8.3-6.9c3.6-1.7,7.7-2.5,12.5-2.5C-36.6-72.3-28.4-67.8-23.4-58.8z M39.2-15.2V-8H-6.7v-63.4h44.4v7.2H0.9v20.4h28.6
					v7.2H0.9v21.3h38.3V-15.2z M104.7-39.9v32h-5.8l-0.3-8.5c-1.9,3.1-4.5,5.4-7.8,7.1c-3.4,1.6-7.4,2.4-12.1,2.4
					c-6,0-11.1-1.3-15.6-4s-7.8-6.4-10.2-11.3c-2.4-4.9-3.6-10.7-3.6-17.3s1.2-12.4,3.7-17.3c2.5-4.9,5.9-8.7,10.4-11.4
					s9.6-4,15.5-4c6.3,0,11.4,1.2,15.5,3.6s7.3,6,9.8,10.9l-7,3.8c-1.4-3.6-3.7-6.3-6.9-8.3c-3.2-1.9-7-2.9-11.5-2.9
					c-4.3,0-8,1-11.3,3.1c-3.2,2-5.7,5-7.5,8.8c-1.8,3.8-2.7,8.3-2.7,13.6c0,8.1,1.9,14.3,5.6,18.8c3.7,4.4,9.1,6.7,16,6.7
					c5.5,0,10-1.4,13.5-4.2s5.2-6.8,5.2-12.1v-2.2H77.4v-7.2L104.7-39.9L104.7-39.9z M171.7-31.6c0,8.1-2.1,14.3-6.4,18.4
					C161-9.1,154.9-7,146.8-7s-14.2-2.1-18.5-6.2c-4.3-4.2-6.4-10.3-6.4-18.3v-39.7h7.7v37.7c0,6.7,1.4,11.5,4.2,14.6
					s7.1,4.7,13,4.7s10.2-1.6,13-4.7s4.2-8,4.2-14.6v-37.8h7.7V-31.6z M214.6-34.3h-15.2V-8h-7.7v-63.4h24c6.5,0,11.6,1.7,15.6,5
					c3.9,3.3,5.9,7.8,5.9,13.5c0,4.5-1.2,8.3-3.7,11.3c-2.5,3.1-5.9,5.2-10.3,6.3l17.9,27.2H232L214.6-34.3z M199.4-41.5h16.2
					c9,0,13.4-3.8,13.4-11.3s-4.5-11.3-13.4-11.3h-16.2V-41.5z M291.2-25.5h-28.7l-6.7,17.6h-8.1l24.7-63.4h9.1l24.6,63.4h-8.2
					L291.2-25.5z M288.4-32.7l-8.5-22.5l-3-8.8h-0.2l-2.8,8.5l-8.6,22.8H288.4z"/>
			</g>
		</g>
	</g>
</g>
</svg>
