<?xml version="1.0" encoding="utf-8"?>
<!-- Generator: Adobe Illustrator 24.0.2, SVG Export Plug-In . SVG Version: 6.00 Build 0)  -->
<svg version="1.1" id="empty" xmlns="http://www.w3.org/2000/svg" xmlns:xlink="http://www.w3.org/1999/xlink" x="0px" y="0px"
	 viewBox="0 0 275.3 283.8" style="enable-background:new 0 0 275.3 283.8;" xml:space="preserve">
<style type="text/css">
	.st0{opacity:0.56;}
	.st1{fill:#5F76E8;}
	.st2{fill:#01CAF1;}
</style>
<g id="horizontal" transform="matrix(1,0,0,1,0,0)">
	<g id="icon" transform="matrix(0.983029102420236,0,0,0.9830288755625325,0.178194424587522,-0.7480869373198189)">
		<g transform="matrix(0.5397550900807232,0,0,0.5397551244618941,4.832571554152406,2.3012243776905295)" class="st0">
			<path class="st1" d="M103,247.5c-23.1,26.5-42.9,55.9-58.7,87.7c40.5,84.7,115.4,149.9,206.5,177.5c0.8-0.2,1.6-0.5,2.4-0.8
				c34.2-39.2,60.8-85.2,77.6-135.6C241.7,357.9,162.6,311.8,103,247.5z"/>
		</g>
		<path class="st2" d="M264.8,63.7L264.8,63.7C236,36.7,198.5,19.1,157,15.3c10.4,15.2,18.9,31.9,25.2,49.5
			c8,22.6,12.4,46.8,12.4,72.1c0,23.9-3.9,46.9-11.1,68.4c-9.1,27.2-23.5,52-41.9,73.2c38.5-12,71.5-36.4,94.3-68.5
			c21.2-29.8,33.7-66.2,33.7-105.5C269.5,90.5,267.8,76.9,264.8,63.7z"/>
		<path class="st1" d="M157,15.3c-5.5-0.5-11-0.8-16.6-0.8C92,14.5,48.1,33.4,15.5,64.1c-0.1,0.3-0.1,0.6-0.2,0.9
			c-2.9,12.8-4.4,26.1-4.4,39.7c0,28.2,6.4,54.8,17.8,78.6c8.5-17.2,19.2-33.1,31.7-47.3c31.1-35.6,73.6-61.2,121.7-71
			C175.8,47.2,167.4,30.6,157,15.3z"/>
		<g transform="matrix(1.0795101801614464,0,0,1.0795102489237882,4.832571554152406,2.3012243776905295)">
		</g>
	</g>
</g>
</svg>
